<svg id="Layer_1" enable-background="new 0 0 511.999 511.999" height="512" viewBox="0 0 511.999 511.999" width="512" xmlns="http://www.w3.org/2000/svg"><g><path d="m349.757 44.847c-6.095-3.696-13.843-6.473-23.662-7.29-3.577-.298-6.769-2.335-8.435-5.515-7.882-15.038-37.704-54.603-120.837-14.821-81.857 39.171-55.609 97.199-39.741 121.233l2.275 4.187h92.975l35.737-25.497 33.911 21.616 28.992 3.881 4.517-3.881 12.515-49.697c4.022-17.126-3.203-35.096-18.247-44.216z" fill="#7b6c79"/><g><path d="m248.677 17.221c13.317-6.372 25.258-10.7 35.968-13.428-18.829-6.507-46.846-6.18-87.821 13.428-81.857 39.171-55.609 97.199-39.741 121.233l2.275 4.187h51.853l-2.275-4.187c-15.868-24.034-42.117-82.062 39.741-121.233z" fill="#665e68"/></g><path d="m356.792 139.872c-6.329-5.734-16.132-9.727-27.627-8.089h-.039-.001l-3.478 3.389v48.419l3.478 2.473c18.64 2.904 35.029-10.612 35.029-27.747.001-7.06-2.785-13.507-7.362-18.445z" fill="#ffcebe"/><path d="m346.509 133.626c-5.049-1.915-10.932-2.756-17.344-1.842h-.039-.001l-3.478 3.389v48.419l3.478 2.473c6.222.97 12.189.102 17.383-2.112v-50.327z" fill="#f5b2a2"/><path d="m182.874 131.784h-.04c-11.29-1.574-20.855 2.594-27.635 8.101-.003.002-.006.005-.009.007-4.567 4.936-7.346 11.374-7.346 18.426 0 17.135 16.389 30.653 35.029 27.748l3.526-1.615v-50.113l-3.526-2.524v-.03z" fill="#ffcebe"/><path d="m168.706 158.318c0-7.052 2.779-13.491 7.346-18.426.003-.002.006-.005.009-.007 2.833-2.301 6.158-4.36 9.886-5.873l-3.072-2.2v-.029h-.04c-11.29-1.574-20.855 2.594-27.635 8.101-.003.002-.006.005-.009.007-4.567 4.936-7.346 11.374-7.346 18.426 0 17.135 16.389 30.653 35.029 27.748l3.526-1.615v-.477c-10.393-4.408-17.694-14.223-17.694-25.655z" fill="#f5b2a2"/><path d="m314.011 303.345-1.07.617-44.979 44.979c-7.343 7.343-19.247 7.343-26.59 0l-41.948-41.948-1.981-1.776-2.385 1.853 23.792 200.344 5.079 4.585h64.139l5.299-4.928 25.068-200.105z" fill="#7b6c79"/><path d="m254.098 354.422c-4.62-.139-9.199-1.954-12.725-5.48l-41.948-41.948-1.981-1.776-2.385 1.853 23.792 200.344 5.079 4.585h50.954z" fill="#665e68"/><path d="m329.125 131.784c-17.071-1.447-31.847-15.226-36.514-31.71-.144-.51-.279-1.024-.405-1.542-.135-.556-.623-.953-1.196-.953s-1.06.397-1.196.953c-.127.524-.264 1.044-.41 1.56-4.714 16.622-19.686 29.31-36.914 30.629 1.031-.079-12.995 1.063-15.489 1.063h-16.609v92.07h91.175l1.03-28.673 12.362-8.721 4.165-6.507c.001-13.543.001-37.499.001-48.169z" fill="#ffdecf"/><g><path d="m222.9 214.134v-82.35h-40.026v48.169l3.011 6.507 12.105 8.206 4.893 29.188h20.89c-.563-3.16-.873-6.405-.873-9.72z" fill="#ffcebe"/></g><path d="m405.781 316.026c-2.82-1.092-33.905-13.13-61.379-23.77l-6.735 3.627-25.069 203.977 6.31 12.14h113.687c7.402 0 13.402-6.001 13.402-13.402 0-11.073 0-107.155 0-120.192 0-28.453-18.217-53.326-40.216-62.38z" fill="#da7e4a"/><path d="m200.823 503.465-24.725-200.372-8.5-10.838-.052-.181-61.326 23.951c-17.194 7.077-40.217 29.341-40.217 62.38v120.192c0 7.401 6 13.402 13.402 13.402h113.687z" fill="#da7e4a"/><path d="m96.393 498.597c0-10.865 0-121.371 0-133.624 0-26.947 15.316-46.723 30.294-56.941l-20.467 7.993c-17.194 7.077-40.217 29.341-40.217 62.38v120.192c0 7.401 6 13.402 13.402 13.402h30.391c-7.403 0-13.403-6-13.403-13.402z" fill="#cb6c35"/><path d="m315.935 281.231c-7.691-2.978-12.997-5.033-14.064-5.446-2.85-1.102-4.744-3.844-4.752-6.916l-.007-8.01-4.603-3.437h-74.345l-3.327 3.411v7.99c0 3.063-1.473 4.868-3.169 6.019l-15.637 6.107-1.905 3.515 1.905 21.548 3.394 3.042 41.948 41.948c7.343 7.343 19.247 7.343 26.59 0l44.979-44.979 2.993-1.727 2.501-19.917z" fill="#ffcebe"/><path d="m254.615 257.422h-36.451l-3.327 3.411v7.99c0 3.063-1.473 4.868-3.169 6.019l-15.637 6.107-1.905 3.515 1.905 21.548 3.394 3.042 41.948 41.948c3.658 3.658 8.448 5.491 13.243 5.504v-99.084z" fill="#f5b2a2"/><g fill="#cb6c35"><path d="m135.754 511.999v-141.485c0-4.267-3.459-7.726-7.726-7.726s-7.726 3.459-7.726 7.726v141.485z"/><path d="m391.698 511.999v-141.485c0-4.267-3.459-7.726-7.726-7.726s-7.726 3.459-7.726 7.726v141.485z"/></g><path d="m307.879 200.298v6.96c0 7.886-6.393 14.279-14.279 14.279h-5.514c-4.435 0-8.702-1.694-11.928-4.737-3.227-3.042-7.494-4.737-11.928-4.737h-8.23-8.23c-4.435 0-8.702 1.694-11.928 4.737-3.227 3.042-7.494 4.737-11.928 4.737h-5.514c-7.886 0-14.279-6.393-14.279-14.279v-6.96c0-5.147-2.77-9.895-7.25-12.429l-13.997-7.916v27.884c0 33.092 26.827 59.919 59.919 59.919h13.207 13.207c33.092 0 59.919-26.827 59.919-59.919 0-9.144 0-19.267 0-27.884l-13.997 7.916c-4.48 2.534-7.25 7.282-7.25 12.429z" fill="#7b6c79"/><path d="m223.41 221.537h-5.011c-7.886 0-14.279-6.393-14.279-14.279v-6.96c0-5.147-2.77-9.895-7.25-12.429l-13.997-7.916v27.884c0 33.092 26.827 59.919 59.919 59.919h13.208 7.66c-21.126-5.919-37.27-24.052-40.25-46.219z" fill="#665e68"/><g fill="#e39b74"><path d="m160.802 382.967c-.432-1.728-.018-3.558 1.116-4.932l10.12-12.252c1.956-2.367 1.643-5.867-.701-7.851l-13.245-11.207c-1.605-1.358-2.315-3.5-1.84-5.547l11.294-49.103c10.65-4.125 20.777-8.14 28.485-11.125l27.899 231.05c-10.475 0-20.803 0-30.839 0z"/><path d="m351.197 382.967c.432-1.728.018-3.558-1.116-4.932l-10.12-12.252c-1.956-2.367-1.643-5.867.701-7.851l13.245-11.207c1.605-1.358 2.315-3.5 1.84-5.547l-11.346-48.922c-10.65-4.125-20.759-8.039-28.467-11.025l-27.865 230.769h30.839z"/></g></g></svg>